<?xml version="1.0" encoding="utf-8"?><svg xmlns="http://www.w3.org/2000/svg" xmlns:xlink="http://www.w3.org/1999/xlink"><symbol viewBox="0 0 26.9 32" id="apple" xmlns="http://www.w3.org/2000/svg"><path d="M26.31 24.91A17.13 17.13 0 0124.6 28a15.71 15.71 0 01-2.22 2.68A4.4 4.4 0 0119.54 32a7.3 7.3 0 01-2.62-.63 7.62 7.62 0 00-2.83-.64 7.74 7.74 0 00-2.9.64 8.76 8.76 0 01-2.5.67 4.1 4.1 0 01-2.91-1.29A16.93 16.93 0 013.47 28 19.3 19.3 0 011 23.08a17.73 17.73 0 01-1-5.81 10.55 10.55 0 011.38-5.54 8 8 0 016.85-4.05 9.27 9.27 0 013 .71 9.8 9.8 0 002.41.71 14.94 14.94 0 002.68-.83A9.07 9.07 0 0120 7.62a7.76 7.76 0 016.06 3.2 6.73 6.73 0 00-3.58 6.12A6.83 6.83 0 0024.69 22a7.79 7.79 0 002.21 1.46c-.21.47-.39 1-.59 1.42zM20.13.63a6.85 6.85 0 01-1.75 4.48 6 6 0 01-5 2.45 5.86 5.86 0 010-.61 7 7 0 011.86-4.52 7.26 7.26 0 012.25-1.7A6.62 6.62 0 0120.07 0a2.32 2.32 0 01.06.63z"/></symbol><symbol viewBox="0 0 197 70" id="apple-btn" xmlns="http://www.w3.org/2000/svg"><rect width="197" height="70" rx="15" ry="15" fill="#fff"/><path d="M52.63 34.9a6.92 6.92 0 013.26-5.75 7 7 0 00-2.4-2.15 7 7 0 00-3.12-.84c-2.32-.24-4.57 1.39-5.75 1.39s-3-1.37-5-1.32A7.36 7.36 0 0033.44 30c-2.68 4.63-.68 11.43 1.88 15.18C36.6 47 38.1 49.07 40.06 49s2.64-1.23 4.94-1.23S48 49 50 49s3.35-1.84 4.59-3.69A15.22 15.22 0 0056.67 41a6.56 6.56 0 01-2.93-2.43 6.69 6.69 0 01-1.11-3.67zM48.86 23.71a6.77 6.77 0 001.54-4.83 6.84 6.84 0 00-4.4 2.3 6.5 6.5 0 00-1.25 2.16 6.36 6.36 0 00-.33 2.49 5.73 5.73 0 004.48-2.12zM75.65 44.54h-6.3L67.84 49h-2.66l6-16.51h2.77l6 16.51h-2.79zM70 42.48h5l-2.46-7.25h-.07zM92.75 43c0 3.74-2 6.15-5 6.15A4.11 4.11 0 0183.93 47h-.05v6h-2.47V37h2.39v2a4.36 4.36 0 011.63-1.59 4.25 4.25 0 012.21-.53c3.09-.04 5.11 2.37 5.11 6.12zm-2.54 0c0-2.43-1.26-4-3.18-4s-3.16 1.64-3.16 4 1.27 4 3.13 4 3.18-1.59 3.18-4.05zM106 43c0 3.74-2 6.15-5 6.15A4.08 4.08 0 0197.19 47h-.06v6h-2.47V37h2.39v2a4.25 4.25 0 013.83-2.12C104 36.84 106 39.25 106 43zm-2.54 0c0-2.43-1.26-4-3.18-4s-3.16 1.64-3.16 4 1.27 4 3.16 4 3.18-1.56 3.18-4zM114.76 44.4c.18 1.64 1.77 2.71 3.95 2.71s3.58-1.07 3.58-2.55c0-1.28-.9-2.05-3-2.57l-2.15-.52c-3-.73-4.44-2.15-4.44-4.45 0-2.85 2.49-4.81 6-4.81s5.89 2 6 4.81h-2.5c-.15-1.65-1.51-2.64-3.5-2.64s-3.35 1-3.35 2.47c0 1.16.86 1.85 3 2.38l1.82.44c3.39.81 4.8 2.17 4.8 4.58 0 3.09-2.46 5-6.38 5-3.66 0-6.13-1.89-6.29-4.88zM130.24 34.11V37h2.28v2h-2.28v6.64c0 1 .45 1.51 1.46 1.51q.41 0 .81-.06v2a7 7 0 01-1.37.11c-2.44 0-3.39-.91-3.39-3.25v-6.9H126V37h1.75v-2.89zM133.85 43c0-3.79 2.23-6.17 5.71-6.17s5.71 2.38 5.71 6.17-2.21 6.17-5.71 6.17-5.71-2.39-5.71-6.17zm8.9 0c0-2.6-1.19-4.13-3.19-4.13s-3.19 1.55-3.19 4.13 1.19 4.13 3.19 4.13 3.19-1.52 3.19-4.13zM147.31 37h2.36v2h.05a2.88 2.88 0 011.07-1.6 2.79 2.79 0 011.83-.57 4.09 4.09 0 01.85.09v2.31a3.5 3.5 0 00-1.11-.15 2.56 2.56 0 00-1.93.79 2.6 2.6 0 00-.54.92 2.53 2.53 0 00-.11 1.06V49h-2.47zM164.86 45.47c-.33 2.18-2.46 3.68-5.18 3.68-3.5 0-5.68-2.34-5.68-6.11s2.19-6.23 5.57-6.23S165 39.1 165 42.75v.85h-8.5v.15a3.12 3.12 0 00.85 2.44 3.11 3.11 0 002.39 1 2.74 2.74 0 001.67-.39 2.64 2.64 0 001.1-1.3zm-8.35-3.6h6a2.93 2.93 0 00-.18-1.17 3.08 3.08 0 00-.63-1 3 3 0 00-1-.67 3.29 3.29 0 00-2.34 0 3.19 3.19 0 00-1 .67 3 3 0 00-.66 1 3.13 3.13 0 00-.23 1.17zM69.7 20.06a3.46 3.46 0 011.52.23 3.42 3.42 0 012.06 2.18 3.3 3.3 0 01.15 1.53c0 2.53-1.37 4-3.73 4h-2.87v-7.94zm-1.64 6.81h1.5a2.56 2.56 0 002-.8 2.57 2.57 0 00.62-2.07 2.51 2.51 0 00-.1-1.09 2.43 2.43 0 00-.54-.95 2.55 2.55 0 00-.9-.62 2.49 2.49 0 00-1.08-.18h-1.5zM74.82 25a2.88 2.88 0 01.18-1.17 2.8 2.8 0 01.6-1 2.7 2.7 0 011-.69 2.85 2.85 0 012.29 0 2.74 2.74 0 011 .69 2.92 2.92 0 01.59 1 2.88 2.88 0 01-.01 1.17 2.85 2.85 0 01-.13 1.16 2.78 2.78 0 01-1.54 1.7 2.74 2.74 0 01-1.15.25 2.68 2.68 0 01-1.15-.25 2.81 2.81 0 01-1-.68 2.93 2.93 0 01-.6-1 2.85 2.85 0 01-.08-1.18zm4.44 0c0-1.3-.59-2.06-1.61-2.06S76 23.7 76 25s.58 2.06 1.61 2.06 1.61-.76 1.61-2.06zM88 28h-1.25l-1.23-4.41h-.1L84.19 28H83l-1.65-6h1.2l1.08 4.57h.08L84.92 22h1.13l1.23 4.57h.09L88.44 22h1.18zM91 22h1.14v1h.09a1.74 1.74 0 01.72-.82 1.72 1.72 0 011.05-.29 2 2 0 011.58.61 2 2 0 01.43.75 2 2 0 01.07.87V28h-1.16v-3.59c0-1-.42-1.44-1.3-1.44a1.48 1.48 0 00-.58.1 1.42 1.42 0 00-.48.33 1.32 1.32 0 00-.3.51 1.26 1.26 0 00-.07.58V28H91zM98 19.67h1.18V28H98zM100.81 25a2.71 2.71 0 01.13-1.17 2.64 2.64 0 01.59-1 2.8 2.8 0 011-.69 2.86 2.86 0 011.15-.24 2.8 2.8 0 012.1.93 2.64 2.64 0 01.59 1 2.71 2.71 0 01.13 1.17 2.69 2.69 0 01-.13 1.16 2.76 2.76 0 01-.59 1 2.91 2.91 0 01-1 .68 2.77 2.77 0 01-2.3 0 2.81 2.81 0 01-1-.68 2.76 2.76 0 01-.59-1 2.69 2.69 0 01-.08-1.16zm4.43 0c0-1.3-.59-2.06-1.61-2.06S102 23.7 102 25s.57 2.06 1.6 2.06 1.61-.76 1.61-2.06zM107.7 26.3c0-1.08.8-1.7 2.23-1.79l1.62-.09v-.52c0-.63-.42-1-1.23-1-.66 0-1.11.24-1.25.67h-1.14c.12-1 1.09-1.69 2.45-1.69s2.34.75 2.34 2V28h-1.13v-.84h-.1a2 2 0 01-1.8.94 1.69 1.69 0 01-.69-.1 1.83 1.83 0 01-.65-.37 1.76 1.76 0 01-.44-.61 1.69 1.69 0 01-.21-.72zm3.85-.51v-.5l-1.46.09c-.83.06-1.2.34-1.2.86s.47.86 1.11.86a1.33 1.33 0 00.56-.06 1.47 1.47 0 00.49-.27 1.51 1.51 0 00.35-.44 1.29 1.29 0 00.15-.54zM114.28 25c0-1.9 1-3.1 2.48-3.1a2.07 2.07 0 011.07.26 1.92 1.92 0 01.77.8h.09v-3.29h1.18V28h-1.13v-.94h-.1a2.07 2.07 0 01-1.88 1c-1.52.03-2.48-1.17-2.48-3.06zm1.22 0c0 1.27.6 2 1.6 2s1.61-.78 1.61-2-.62-2-1.61-2-1.6.77-1.6 2zM124.76 25a2.88 2.88 0 01.13-1.17 2.8 2.8 0 01.6-1 2.62 2.62 0 011-.69 2.85 2.85 0 012.29 0 2.7 2.7 0 011 .69 2.8 2.8 0 01.6 1 2.88 2.88 0 01.13 1.17 2.85 2.85 0 01-.13 1.16 3.06 3.06 0 01-.59 1 2.85 2.85 0 01-1 .68 2.68 2.68 0 01-1.15.25 2.74 2.74 0 01-1.15-.25 2.78 2.78 0 01-1.54-1.7 2.85 2.85 0 01-.19-1.14zm4.43 0c0-1.3-.58-2.06-1.6-2.06S126 23.7 126 25s.58 2.06 1.61 2.06 1.58-.76 1.58-2.06zM132 22h1.14v1h.09a1.79 1.79 0 011.77-1.11 1.9 1.9 0 01.85.13 1.86 1.86 0 01.72.48 1.88 1.88 0 01.43.75 2 2 0 01.07.87V28h-1.17v-3.59c0-1-.42-1.44-1.29-1.44a1.42 1.42 0 00-.58.1 1.37 1.37 0 00-.49.33 1.46 1.46 0 00-.3.51 1.25 1.25 0 00-.06.58V28H132zM143.76 20.51V22h1.3v1h-1.3v3.08c0 .62.26.9.85.9h.45v1c-.22 0-.43.05-.65.06-1.31 0-1.83-.47-1.83-1.62V23h-1v-1h1v-1.49zM146.67 19.67h1.17V23h.1a1.76 1.76 0 01.74-.83 1.86 1.86 0 011.08-.25 2.06 2.06 0 01.85.15 1.9 1.9 0 01.71.48 2.16 2.16 0 01.43.75 1.93 1.93 0 01.07.86V28h-1.18v-3.58c0-1-.44-1.44-1.28-1.44a1.37 1.37 0 00-.6.08 1.4 1.4 0 00-.51.33 1.42 1.42 0 00-.4 1.11V28h-1.18zM158.71 26.38a2.38 2.38 0 01-1 1.33 2.41 2.41 0 01-1.61.4 2.84 2.84 0 01-1.15-.22 2.8 2.8 0 01-.95-.69 2.64 2.64 0 01-.57-1 2.67 2.67 0 01-.1-1.16 2.72 2.72 0 01.1-1.17 2.71 2.71 0 011.57-1.74 2.67 2.67 0 011.15-.24c1.66 0 2.67 1.14 2.67 3v.41h-4.23v.07a1.6 1.6 0 00.08.65 1.72 1.72 0 00.34.56 1.5 1.5 0 00.53.37 1.56 1.56 0 00.64.13A1.48 1.48 0 00157 27a1.52 1.52 0 00.6-.58zm-4.15-1.93h3a1.35 1.35 0 00-.08-.6 1.49 1.49 0 00-.31-.51 1.66 1.66 0 00-.49-.34 1.71 1.71 0 00-.59-.11 1.53 1.53 0 00-.6.12 1.41 1.41 0 00-.5.33 1.57 1.57 0 00-.34.51 1.36 1.36 0 00-.11.6z"/></symbol><symbol viewBox="0 0 197 70" id="apple-btn-i" xmlns="http://www.w3.org/2000/svg"><rect width="197" height="70" rx="15" ry="15"/><path d="M52.63 34.9a6.92 6.92 0 013.26-5.75 7 7 0 00-2.4-2.15 7 7 0 00-3.12-.84c-2.32-.24-4.57 1.39-5.75 1.39s-3-1.37-5-1.33A7.4 7.4 0 0033.44 30c-2.68 4.63-.68 11.43 1.88 15.18C36.6 47 38.1 49.07 40.06 49s2.64-1.23 4.94-1.23S48 49 50 49s3.35-1.84 4.59-3.69A15.22 15.22 0 0056.67 41a6.62 6.62 0 01-2.93-2.43 6.69 6.69 0 01-1.11-3.67zM48.86 23.71a6.77 6.77 0 001.54-4.83 6.84 6.84 0 00-4.4 2.3 6.41 6.41 0 00-1.58 4.64 5.57 5.57 0 002.48-.54 5.68 5.68 0 001.96-1.57zM75.65 44.54h-6.3L67.84 49h-2.66l6-16.51h2.77l6 16.51h-2.79zM70 42.48h5l-2.46-7.25h-.07zM92.75 43c0 3.74-2 6.15-5 6.15A4.11 4.11 0 0183.93 47h-.05v6h-2.47V37h2.39v2a4.36 4.36 0 011.63-1.59 4.25 4.25 0 012.21-.53c3.09-.04 5.11 2.37 5.11 6.12zm-2.54 0c0-2.43-1.26-4-3.18-4s-3.16 1.64-3.16 4 1.27 4 3.13 4 3.18-1.59 3.18-4.05zM106 43c0 3.74-2 6.15-5 6.15A4.08 4.08 0 0197.19 47h-.06v6h-2.47V37h2.39v2a4.25 4.25 0 013.83-2.12C104 36.84 106 39.25 106 43zm-2.54 0c0-2.43-1.26-4-3.18-4s-3.16 1.64-3.16 4 1.27 4 3.16 4 3.18-1.56 3.18-4zM114.76 44.4c.18 1.64 1.77 2.71 3.95 2.71s3.58-1.07 3.58-2.55c0-1.28-.9-2.05-3-2.57l-2.15-.52c-3-.73-4.44-2.15-4.44-4.45 0-2.85 2.49-4.81 6-4.81s5.89 2 6 4.81h-2.5c-.15-1.65-1.51-2.64-3.5-2.64s-3.35 1-3.35 2.47c0 1.16.86 1.85 3 2.38l1.82.44c3.39.81 4.8 2.17 4.8 4.58 0 3.09-2.46 5-6.38 5-3.66 0-6.13-1.89-6.29-4.88zM130.24 34.11V37h2.28v2h-2.28v6.64c0 1 .45 1.51 1.46 1.51q.41 0 .81-.06v2a7 7 0 01-1.37.11c-2.44 0-3.39-.92-3.39-3.25v-6.9H126V37h1.75v-2.89zM133.85 43c0-3.79 2.23-6.17 5.71-6.17s5.71 2.38 5.71 6.17-2.21 6.17-5.71 6.17-5.71-2.39-5.71-6.17zm8.9 0c0-2.6-1.19-4.13-3.19-4.13s-3.19 1.55-3.19 4.13 1.19 4.13 3.19 4.13 3.19-1.52 3.19-4.13zM147.31 37h2.36v2h.05a2.88 2.88 0 011.07-1.6 2.79 2.79 0 011.83-.57 4.09 4.09 0 01.85.09v2.31a3.5 3.5 0 00-1.11-.15 2.56 2.56 0 00-1.93.79 2.6 2.6 0 00-.54.92 2.53 2.53 0 00-.11 1.06V49h-2.47zM164.86 45.47c-.33 2.18-2.46 3.68-5.18 3.68-3.5 0-5.68-2.35-5.68-6.11s2.19-6.23 5.57-6.23S165 39.1 165 42.75v.85h-8.5v.15a3.12 3.12 0 00.85 2.44 3.11 3.11 0 002.39 1 2.74 2.74 0 001.67-.39 2.64 2.64 0 001.1-1.3zm-8.35-3.6h6a2.93 2.93 0 00-.18-1.17 3.08 3.08 0 00-.63-1 3 3 0 00-1-.67 3.29 3.29 0 00-2.34 0 3.19 3.19 0 00-1 .67 3 3 0 00-.66 1 3.13 3.13 0 00-.23 1.17zM69.7 20.06a3.46 3.46 0 011.52.23 3.42 3.42 0 012.06 2.18 3.3 3.3 0 01.15 1.53c0 2.53-1.37 4-3.73 4h-2.87v-7.94zm-1.64 6.81h1.5a2.49 2.49 0 001.08-.18 2.47 2.47 0 001.45-1.58 2.52 2.52 0 00.09-1.11 2.51 2.51 0 00-.1-1.09 2.43 2.43 0 00-.54-.95 2.55 2.55 0 00-.9-.62 2.49 2.49 0 00-1.08-.18h-1.5zM74.82 25a2.85 2.85 0 01.18-1.17 2.8 2.8 0 01.6-1 2.7 2.7 0 011-.69 2.85 2.85 0 012.29 0 2.74 2.74 0 011 .69 2.92 2.92 0 01.59 1 2.85 2.85 0 01-.01 1.17 2.87 2.87 0 01-.72 2.19 2.9 2.9 0 01-2.1.93 2.9 2.9 0 01-2.1-.93 2.93 2.93 0 01-.6-1 2.88 2.88 0 01-.13-1.19zm4.44 0c0-1.29-.59-2-1.61-2S76 23.7 76 25s.58 2.07 1.61 2.07 1.61-.76 1.61-2.07zM88 28h-1.25l-1.23-4.41h-.1L84.19 28H83l-1.65-6h1.2l1.08 4.57h.08L84.92 22h1.13l1.23 4.57h.09L88.44 22h1.18zM91 22h1.14v1h.09a1.77 1.77 0 01.72-.81 1.72 1.72 0 011.05-.3 2 2 0 011.58.61 2 2 0 01.43.75 2 2 0 01.07.87V28h-1.16v-3.59c0-1-.42-1.44-1.3-1.44a1.48 1.48 0 00-.58.1 1.42 1.42 0 00-.48.33 1.36 1.36 0 00-.3.5 1.32 1.32 0 00-.07.59V28H91zM98 19.67h1.18V28H98zM100.81 25a2.71 2.71 0 01.13-1.17 2.64 2.64 0 01.59-1 2.83 2.83 0 014.2 0 2.64 2.64 0 01.59 1 2.71 2.71 0 01.13 1.17 2.69 2.69 0 01-.13 1.16 2.76 2.76 0 01-.59 1 2.91 2.91 0 01-1 .68 2.85 2.85 0 01-3.25-.68 2.76 2.76 0 01-.59-1 2.69 2.69 0 01-.08-1.16zm4.43 0c0-1.3-.59-2.06-1.61-2.06S102 23.7 102 25s.57 2.06 1.6 2.06 1.61-.76 1.61-2.06zM107.7 26.3c0-1.08.8-1.7 2.23-1.79l1.62-.09v-.52c0-.63-.42-1-1.23-1-.66 0-1.11.24-1.25.67h-1.14c.12-1 1.09-1.69 2.45-1.69s2.34.75 2.34 2V28h-1.13v-.84h-.1a2 2 0 01-1.8.94 1.69 1.69 0 01-.69-.1 1.83 1.83 0 01-.65-.37 1.76 1.76 0 01-.44-.61 1.69 1.69 0 01-.21-.72zm3.85-.51v-.5l-1.46.09c-.83.05-1.2.34-1.2.86s.47.86 1.11.86a1.51 1.51 0 00.56-.06 1.47 1.47 0 00.49-.27 1.51 1.51 0 00.35-.44 1.29 1.29 0 00.15-.54zM114.28 25c0-1.9 1-3.1 2.48-3.1a2.07 2.07 0 011.07.26 1.92 1.92 0 01.77.8h.09v-3.29h1.18V28h-1.13v-.94h-.1a2 2 0 01-.79.78 2.07 2.07 0 01-1.09.26c-1.52-.01-2.48-1.21-2.48-3.1zm1.22 0c0 1.27.6 2 1.6 2s1.61-.78 1.61-2-.62-2-1.61-2-1.6.77-1.6 2zM124.76 25a2.85 2.85 0 01.13-1.16 2.8 2.8 0 01.6-1 2.62 2.62 0 011-.69 2.85 2.85 0 012.29 0 2.7 2.7 0 011 .69 2.8 2.8 0 01.6 1 2.85 2.85 0 01.13 1.16 2.88 2.88 0 01-.13 1.17 3.06 3.06 0 01-.59 1 2.95 2.95 0 01-2.11.93 2.84 2.84 0 01-2.92-3.1zm4.43 0c0-1.29-.58-2-1.6-2s-1.59.7-1.59 2 .58 2.07 1.61 2.07 1.58-.77 1.58-2.07zM132 22h1.14v1h.09a1.8 1.8 0 011.77-1.11 1.9 1.9 0 01.85.13 1.86 1.86 0 01.72.48 1.88 1.88 0 01.43.75 2 2 0 01.07.87V28h-1.17v-3.59c0-1-.42-1.44-1.29-1.44a1.42 1.42 0 00-.58.1 1.37 1.37 0 00-.49.33 1.52 1.52 0 00-.3.5 1.47 1.47 0 00-.06.59V28H132zM143.76 20.51V22h1.3v1h-1.3v3.08c0 .62.26.9.84.9a3.44 3.44 0 00.46 0v1c-.22 0-.43.05-.65.06-1.31 0-1.84-.47-1.84-1.62V23h-.95v-1h.95v-1.49zM146.67 19.67h1.17V23h.1a1.76 1.76 0 01.74-.83 1.86 1.86 0 011.08-.25 2.06 2.06 0 01.85.15 1.9 1.9 0 01.71.48 2.16 2.16 0 01.43.75 1.93 1.93 0 01.07.86V28h-1.18v-3.58c0-1-.44-1.44-1.28-1.44a1.37 1.37 0 00-.6.08 1.4 1.4 0 00-.51.33 1.34 1.34 0 00-.32.51 1.48 1.48 0 00-.08.59V28h-1.18zM158.71 26.38a2.38 2.38 0 01-1 1.33 2.41 2.41 0 01-1.61.4 2.84 2.84 0 01-1.15-.22 2.8 2.8 0 01-.95-.69 2.64 2.64 0 01-.57-1 2.67 2.67 0 01-.1-1.16 2.72 2.72 0 01.1-1.17 2.71 2.71 0 011.57-1.74 2.67 2.67 0 011.15-.24c1.66 0 2.67 1.14 2.67 3v.41h-4.23v.07a1.53 1.53 0 00.08.64 1.66 1.66 0 00.34.57 1.5 1.5 0 00.53.37 1.56 1.56 0 00.64.13A1.5 1.5 0 00157 27a1.43 1.43 0 00.6-.57zm-4.15-1.93h3a1.35 1.35 0 00-.08-.6 1.49 1.49 0 00-.31-.51 1.66 1.66 0 00-.49-.34 1.71 1.71 0 00-.59-.11 1.53 1.53 0 00-.6.12 1.41 1.41 0 00-.5.33 1.57 1.57 0 00-.34.51 1.36 1.36 0 00-.11.6z" fill="#fff"/></symbol><symbol viewBox="0 0 50 48" id="apple-btn-s" xmlns="http://www.w3.org/2000/svg"><rect width="50" height="48" rx="8" ry="8"/><path d="M30.77 24.3a4.9 4.9 0 012.36-4.15 5.07 5.07 0 00-1.74-1.55 5.12 5.12 0 00-2.26-.6c-1.67-.18-3.3 1-4.16 1s-2.19-1-3.61-1a5.3 5.3 0 00-4.47 2.73c-1.93 3.34-.49 8.26 1.36 11 .93 1.33 2 2.81 3.43 2.75s1.9-.88 3.58-.88 2.14.88 3.59.85 2.43-1.33 3.32-2.67a10.85 10.85 0 001.52-3.09 4.79 4.79 0 01-2.92-4.4zM28 16.21a4.86 4.86 0 001.11-3.49 5 5 0 00-3.21 1.66 4.7 4.7 0 00-1.14 3.36A4.07 4.07 0 0028 16.21z" fill="#fff"/></symbol><symbol viewBox="0 0 50 48" id="apple-btn-s-i" xmlns="http://www.w3.org/2000/svg"><rect width="50" height="48" rx="8" ry="8" fill="#fff"/><path d="M30.77 24.3a4.9 4.9 0 012.36-4.15 5.07 5.07 0 00-1.74-1.55 5.12 5.12 0 00-2.26-.6c-1.67-.18-3.3 1-4.16 1s-2.19-1-3.61-1a5.3 5.3 0 00-4.47 2.73c-1.93 3.34-.49 8.26 1.36 11 .93 1.33 2 2.81 3.43 2.75s1.9-.88 3.58-.88 2.14.88 3.59.85 2.43-1.33 3.32-2.67a10.85 10.85 0 001.52-3.09 4.79 4.79 0 01-2.92-4.4zM28 16.21a4.86 4.86 0 001.11-3.49 5 5 0 00-3.21 1.66 4.7 4.7 0 00-1.14 3.36A4.07 4.07 0 0028 16.21z"/></symbol><symbol viewBox="0 0 25 33.33" id="arrow-down-o" xmlns="http://www.w3.org/2000/svg"><path d="M12.5 30.2V0m11 17l-11 13.2L1.55 17" fill="none" stroke="currentColor" stroke-miterlimit="10" stroke-width="4"/></symbol><symbol viewBox="0 0 18 10" id="arrow-left" xmlns="http://www.w3.org/2000/svg"><path d="M5 10a1 1 0 01-.71-.29l-4-4a1 1 0 010-1.42l4-4a1 1 0 011.42 1.42L2.41 5l3.3 3.29a1 1 0 010 1.42A1 1 0 015 10z"/><path d="M17 6H1a1 1 0 010-2h16a1 1 0 010 2z"/></symbol><symbol viewBox="0 0 33.33 25" id="arrow-left-o" xmlns="http://www.w3.org/2000/svg"><path d="M33.33 12.5H3.17m13.16 11l-13.16-11L16.33 1.55" fill="none" stroke="currentColor" stroke-miterlimit="10" stroke-width="4"/></symbol><symbol viewBox="0 0 33.33 25" id="arrow-right-o" xmlns="http://www.w3.org/2000/svg"><path d="M30.16 12.5H0M17 1.55l13.16 11L17 23.45" fill="none" stroke="currentColor" stroke-miterlimit="10" stroke-width="4"/></symbol><symbol viewBox="0 0 25 33.33" id="arrow-up-o" xmlns="http://www.w3.org/2000/svg"><path d="M12.5 33.33V3.17M1.55 16.33l11-13.16 11 13.16" fill="none" stroke="currentColor" stroke-miterlimit="10" stroke-width="4"/></symbol><symbol viewBox="0 0 30 32" id="bonfire" xmlns="http://www.w3.org/2000/svg"><path d="M14.64 25.53a11.34 11.34 0 01-8-3.62A12.29 12.29 0 013.11 13a.57.57 0 01.29-.47.55.55 0 01.54 0l1.7 1a8.55 8.55 0 012.78-7.67.54.54 0 01.44-.15.56.56 0 01.4.25l.59.92A9.85 9.85 0 0114.37.52a.57.57 0 01.54 0 10 10 0 014.52 6.37L20 6a.52.52 0 01.39-.25.54.54 0 01.45.15 8.64 8.64 0 012.75 7.74l1.73-1a.55.55 0 01.54 0 .57.57 0 01.29.47A12.28 12.28 0 0122.64 22a11.35 11.35 0 01-8 3.53zM4.22 14a11.25 11.25 0 003.19 7.13 10.22 10.22 0 007.23 3.28 10.24 10.24 0 007.24-3.28A11.31 11.31 0 0025.07 14l-1.94 1.15a.54.54 0 01-.61 0 .53.53 0 01-.2-.57 7.65 7.65 0 00-1.74-7.44l-1 1.55a.55.55 0 01-.59.24.57.57 0 01-.42-.49 9.27 9.27 0 00-3.94-6.79 9.13 9.13 0 00-3.93 6.78.55.55 0 01-1 .25l-1-1.55A7.57 7.57 0 007 14.55a.55.55 0 01-.19.59.56.56 0 01-.62 0z"/><path d="M14.64 25.53a4 4 0 01-3.85-4c0-3.31 3.38-5.88 3.52-6a.56.56 0 01.68 0c.15.11 3.51 2.91 3.51 6a4 4 0 01-3.86 4zm0-8.87c-.8.71-2.74 2.64-2.74 4.83a2.76 2.76 0 105.51 0c-.01-2.03-1.98-4.08-2.78-4.83z"/><path d="M5.19 31.55a.51.51 0 01-.38-.16.55.55 0 010-.78l6.09-6.14a.55.55 0 01.78.78l-6.1 6.14a.53.53 0 01-.39.16zM1 25a.54.54 0 01-.53-.41.55.55 0 01.39-.67l6.85-1.77a.55.55 0 01.67.39.54.54 0 01-.38.66L1.14 25zM24.27 31.55a.53.53 0 01-.39-.16l-6.09-6.14a.55.55 0 010-.78.56.56 0 01.78 0l6.08 6.14a.55.55 0 010 .78.51.51 0 01-.38.16zM28.46 25h-.14l-6.85-1.8a.55.55 0 01.28-1.06l6.85 1.77a.55.55 0 01.39.67.54.54 0 01-.53.42zM3.36 5.31A1.21 1.21 0 004.6 4.07a1.21 1.21 0 00-1.24-1.24 1.21 1.21 0 00-1.24 1.24 1.25 1.25 0 001.24 1.24zM27.22 9.09A1.24 1.24 0 1026 7.85a1.25 1.25 0 001.22 1.24z"/></symbol><symbol viewBox="0 0 63.01 57.1" id="bush" xmlns="http://www.w3.org/2000/svg"><path d="M62.57 54.55l-.24-.24c-4.51-4.6-9.59-9.76-16.9-10.31.12-.31.24-.65.36-1a3.5 3.5 0 00.17-.55c.37-1.16.75-2.54 1.1-4.09A22.45 22.45 0 0152 34.7a1.51 1.51 0 10-1.37-2.7A25 25 0 0048 33.69c.19-1.24.36-2.54.49-3.87a21.88 21.88 0 015.32-5.24A1.51 1.51 0 0052 22.17a32.84 32.84 0 00-3.27 2.73c0-1.14 0-2.28-.06-3.43v-.1a39.39 39.39 0 013.74-3.45 1.5 1.5 0 10-1.78-2.41l-.07.05a29.9 29.9 0 00-2.28 2 4.72 4.72 0 00-.11-.74 13.44 13.44 0 014-5.92 1.5 1.5 0 00-1.78-2.42A13.68 13.68 0 0047 12.26a23.09 23.09 0 00-2-4.78A1.51 1.51 0 0042.38 9a22 22 0 012.37 6A15 15 0 0042 13a1.5 1.5 0 00-1.5 2.6 11.38 11.38 0 015.16 6.25c0 1 .06 2 0 3.08a11.91 11.91 0 00-4.57-2.41 1.5 1.5 0 00-.8 2.89 7.66 7.66 0 015.11 4.12 64.79 64.79 0 01-.74 5.31A10.19 10.19 0 0042 31.33a1.5 1.5 0 10-1.89 2.33c2.57 2.08 3.33 6.9 2.82 8.14a1.18 1.18 0 00.07.2 13 13 0 01-.83 2c-5.17.6-9.28 3.49-12.67 6.6a21.64 21.64 0 00-6-5.32l-.12-7.38 6.51-7.43a4.59 4.59 0 00-.46-6.47 4.64 4.64 0 00-3.29-1.11 4.49 4.49 0 00-3 1.37l-.07-4.35 6.32-7.2a4.59 4.59 0 00-6.51-6.44V4.43a4.5 4.5 0 10-9-.1l-.38 9.79-3.1-2.66a4.59 4.59 0 00-6 6.94l8.6 7.43-.1 3.17-5.32-4.63a4.59 4.59 0 00-6 6.94l10.85 9.36-.19 5c-3.32 2-6 5.56-8.37 8.79l-.18.24A1.5 1.5 0 004 56.8a1.54 1.54 0 00.9.3h56.6a1.5 1.5 0 001.5-1.5 1.53 1.53 0 00-.43-1.05zM14.94 38.87L3.55 29a1.59 1.59 0 012.07-2.4l7.67 6.62a1.49 1.49 0 002.48-1.08l.28-7a1.51 1.51 0 00-.73-1.35l-.23-.17-8.72-7.49a1.59 1.59 0 111.87-2.57l.2.17 5.43 4.69a1.49 1.49 0 002.48-1.08l.5-12.9a1.49 1.49 0 01.48-1A1.42 1.42 0 0118.39 3a1.52 1.52 0 011.45 1.48l.08 5.68a1.5 1.5 0 002.63 1l2.2-2.51a1.59 1.59 0 012.76 1 1.57 1.57 0 01-.39 1.15l-6.7 7.63a1.53 1.53 0 00-.37 1l.13 8.81a1.5 1.5 0 002.63 1l2.4-2.73a1.58 1.58 0 012.38 2.09l-6.89 7.86a1.53 1.53 0 00-.37 1l.11 6.78a10.29 10.29 0 00-5.14.16l.17-4.24a1.49 1.49 0 00-.53-1.29zM7.9 54.1c3-3.82 6.14-7.2 10.28-7.2 3.93 0 7 3 9.82 6.62a1.48 1.48 0 00.25.35l.09.08.12.15zm24.32 0l-.85-1.1c3.51-3.3 7.5-6.1 12.63-6.1 5.69 0 9.94 3.37 13.86 7.2z"/><path d="M33.51 22.5A3.51 3.51 0 1137 19a3.51 3.51 0 01-3.49 3.5zm0-4a.51.51 0 10.49.5.52.52 0 00-.49-.51zM59.51 42.5A3.51 3.51 0 1163 39a3.51 3.51 0 01-3.49 3.5zm0-4a.51.51 0 10.49.5.52.52 0 00-.49-.51zM59.51 34.5A3.51 3.51 0 1163 31a3.51 3.51 0 01-3.49 3.5zm0-4a.51.51 0 10.49.5.52.52 0 00-.49-.51z"/></symbol><symbol viewBox="0 0 32 24" id="check-o" xmlns="http://www.w3.org/2000/svg"><path fill="none" stroke="currentColor" stroke-miterlimit="10" d="M1.45 11.85l9.28 9.25L30.55 1.5"/></symbol><symbol viewBox="0 0 20 10" id="chevron-down" xmlns="http://www.w3.org/2000/svg"><path d="M10 9.5a1.5 1.5 0 01-.9-.3l-8-6A1.5 1.5 0 012.9.8L10 6.12 17.1.8a1.5 1.5 0 111.8 2.4l-8 6a1.5 1.5 0 01-.9.3z"/></symbol><symbol viewBox="0 0 32 19.28" id="chevron-down-o" xmlns="http://www.w3.org/2000/svg"><path fill="none" stroke="currentColor" stroke-miterlimit="10" stroke-width="4" d="M1.5 1.4l14.63 15 14.37-15"/></symbol><symbol viewBox="0 0 19.28 32" id="chevron-left-o" xmlns="http://www.w3.org/2000/svg"><path fill="none" stroke="currentColor" stroke-miterlimit="10" stroke-width="4" d="M17.88 1.5l-15 14.37 15 14.63"/></symbol><symbol viewBox="0 0 8 12" id="chevron-right" xmlns="http://www.w3.org/2000/svg"><path d="M1.71 11.71L.29 10.29 4.59 6 .29 1.71 1.71.29 7.41 6l-5.7 5.71z"/></symbol><symbol viewBox="0 0 19.28 32" id="chevron-right-o" xmlns="http://www.w3.org/2000/svg"><path fill="none" stroke="currentColor" stroke-miterlimit="10" stroke-width="4" d="M1.4 30.5l15-14.63L1.4 1.5"/></symbol><symbol viewBox="0 0 20 10" id="chevron-up" xmlns="http://www.w3.org/2000/svg"><path d="M18 9.5a1.52 1.52 0 01-.9-.3L10 3.88 2.9 9.2a1.5 1.5 0 11-1.8-2.4l8-6a1.5 1.5 0 011.8 0l8 6a1.5 1.5 0 01-.9 2.7z"/></symbol><symbol viewBox="0 0 32 19.28" id="chevron-up-o" xmlns="http://www.w3.org/2000/svg"><path fill="none" stroke="currentColor" stroke-miterlimit="10" stroke-width="4" d="M30.5 17.88l-14.37-15-14.63 15"/></symbol><symbol viewBox="0 0 32 32" id="dribbble" xmlns="http://www.w3.org/2000/svg"><path d="M16 0a16 16 0 1016 16A16 16 0 0016 0zm10.43 7.55a13.38 13.38 0 013 8 22.6 22.6 0 00-9-.09c-.48-1.12-1-2.2-1.48-3.21a26.68 26.68 0 007.48-4.7zm-1.81-1.84A23.78 23.78 0 0117.75 10a62.59 62.59 0 00-4.55-7.14 13.57 13.57 0 012.8-.29 13.35 13.35 0 018.62 3.14zm-14-2a60.23 60.23 0 014.68 7.22 42.76 42.76 0 01-12.36 1.94 13.5 13.5 0 017.67-9.17zm-8 11.75h.08a46.59 46.59 0 008.14-.75 39.89 39.89 0 005.7-1.47c.47.92.93 1.9 1.38 2.93a24 24 0 00-6.28 3.11 28.44 28.44 0 00-5.84 5.4A13.35 13.35 0 012.57 16c0-.18.01-.37.01-.55zm5 11a25.86 25.86 0 015.52-5.13 21.88 21.88 0 015.72-2.82 49.37 49.37 0 012.7 9.7A13.21 13.21 0 0116 29.43a13.35 13.35 0 01-8.39-2.96zm16.31.37a53.48 53.48 0 00-2.53-8.92 20.31 20.31 0 017.86.26 13.46 13.46 0 01-5.34 8.67z"/></symbol><symbol viewBox="0 0 47 34" id="drift" xmlns="http://www.w3.org/2000/svg"><path d="M40 28.14h-3.51a1 1 0 110-2.09H40a4.87 4.87 0 100-9.74 1.1 1.1 0 01-1.11-1A6.11 6.11 0 0026.67 15a1 1 0 01-1.14.94 1 1 0 01-.94-1.14 8.2 8.2 0 0116.25-.53A7 7 0 0140 28.14z"/><path d="M30.08 34a.9.9 0 01-.37-.07H8a7.37 7.37 0 01-.84-14.73 6.24 6.24 0 019.63-3.4 8.3 8.3 0 0112.21.4 7.47 7.47 0 011.76 4.31A6.75 6.75 0 0130.08 34zM13.17 16.72a4.13 4.13 0 00-4.11 3.62 1.06 1.06 0 01-1 .91A5.3 5.3 0 108 31.83h22.08a1.29 1.29 0 01.35.05 4.66 4.66 0 10-.35-9.31 1.08 1.08 0 01-.41.07 1 1 0 01-1.05-1.05 2.61 2.61 0 01.05-.48.78.78 0 000-.14 5.3 5.3 0 00-1.29-3.44 6 6 0 00-4.69-2.13 6 6 0 00-4.92 2.47 1 1 0 01-.76.45 1.08 1.08 0 01-.84-.3 4.25 4.25 0 00-3-1.3z"/><path d="M10 16.58a1.05 1.05 0 01-.75-.31A7.92 7.92 0 018.81 5.7a7.92 7.92 0 015.41-3 7.77 7.77 0 015.87 1.7 8.22 8.22 0 012.07 10.23 1.06 1.06 0 01-1.43.4 1 1 0 01-.4-1.42A6.09 6.09 0 0018.77 6a5.71 5.71 0 00-4.31-1.25 5.88 5.88 0 00-4 2.26 5.84 5.84 0 00.34 7.82 1 1 0 01-.8 1.75z"/><path d="M9.27 7.4a1 1 0 01-.64-.23l-2-1.53A1 1 0 118 4l2 1.53A1 1 0 0110.09 7a1 1 0 01-.82.4zM19.71 5.87a1 1 0 01-.81-1.7L20 2.78a1 1 0 111.63 1.3l-1.1 1.39a1.05 1.05 0 01-.82.4zM22.15 11.09A1 1 0 0122 9l2.57-.27a1 1 0 11.23 2.07l-2.58.28zM5.44 13a1 1 0 01-1-.93 1 1 0 01.9-1.07L8 10.67a1 1 0 01.22 2.08L5.55 13zM14.07 4.33a1 1 0 01-1-.93l-.21-1.95a1 1 0 01.9-1.15 1.06 1.06 0 011.15.93l.2 2a1 1 0 01-.92 1.15z"/></symbol><symbol viewBox="0 0 16.76 32" id="facebook" xmlns="http://www.w3.org/2000/svg"><path d="M13.71 5.33h3.05V.15C16.3.15 14.48 0 12.34 0 7.92 0 5 2.59 5 7.47v4.26H0v5.64h5V32h6V17.37h4.88l.76-5.64h-5.82V8.08c0-1.68.46-2.75 2.89-2.75z"/></symbol><symbol viewBox="0 0 32 32" id="github" xmlns="http://www.w3.org/2000/svg"><path d="M16.05 0A16.22 16.22 0 000 16.43 16.38 16.38 0 0011 32c.86.11 1.07-.33 1.07-.76v-2.87c-4.49 1-5.45-2.19-5.45-2.19a4.63 4.63 0 00-1.82-2.41c-1.5-1 .1-1 .1-1a3.37 3.37 0 012.46 1.65c1.4 2.51 3.75 1.75 4.71 1.31a3.05 3.05 0 011.07-2.19c-3.53-.44-7.27-1.86-7.27-8.11a6.64 6.64 0 011.6-4.38 5.84 5.84 0 01.13-4.37S9 6.24 12 8.32a16.92 16.92 0 014.06-.54 17 17 0 014.07.54c3.1-2.08 4.39-1.64 4.39-1.64a5.82 5.82 0 01.1 4.38 6.13 6.13 0 011.61 4.38c0 6.36-3.75 7.67-7.28 8.11A4.25 4.25 0 0120 26.62v4.49a.77.77 0 001.07.76A16.29 16.29 0 0032 16.32 16 16 0 0016.05 0z"/></symbol><symbol viewBox="0 0 29 32" id="google-play" xmlns="http://www.w3.org/2000/svg"><path d="M.75 31.55l13.88-14 4.9 4.94L3 31.74a2 2 0 01-2 0zm12.48-15.41L0 29.49V2.79zm8.27-5.52l6.5 3.63a2 2 0 010 3.5l-6.64 3.73L16 16.14zM.61.58A1.78 1.78 0 011 .27a2 2 0 012 0l16.7 9.34-5.07 5.12z"/></symbol><symbol viewBox="0 0 32 30.84" id="heart" xmlns="http://www.w3.org/2000/svg"><path d="M28 14.83l-12 14-12-14A8.44 8.44 0 014 4.2 6 6 0 018.54 2a6 6 0 014.55 2.2L15 6.4a1.34 1.34 0 002 0l1.89-2.2a5.82 5.82 0 019.11 0 8.44 8.44 0 010 10.63z" fill="none" stroke="currentColor" stroke-linejoin="round" stroke-width="4"/></symbol><symbol viewBox="0 0 39 39" id="highway" xmlns="http://www.w3.org/2000/svg"><path d="M37.49 25.35l-8.64.17a1.09 1.09 0 000-.18 5.9 5.9 0 00-11.8-.3l-1.47-.7A3.79 3.79 0 0113.45 21v-1.4h2.78a.92.92 0 100-1.83h-2.78v-1.94l5-.81a.92.92 0 00.37-.14 27.84 27.84 0 013.54-2l2.37 2.57a.88.88 0 00.67.29H38a.92.92 0 100-1.83H25.82l-1.68-1.82a29.43 29.43 0 0113.78-2 .91.91 0 001-.83.92.92 0 00-.83-1A31.21 31.21 0 0022.3 10.9h-.07A31.56 31.56 0 0018 13.25l-5.59.89a.91.91 0 00-.77.9v2.11h-7.8a1.92 1.92 0 01-1.92-1.92 1.94 1.94 0 011.92-1.92h1.85a.92.92 0 000-1.83H3.84a3.81 3.81 0 00-3.76 3.75A3.76 3.76 0 003.84 19h7.78v1.75H6.49a.92.92 0 100 1.83h5.37A5.67 5.67 0 0014.79 26l2.56 1.23a5.9 5.9 0 0011.15.15l9-.18a.91.91 0 00.9-.93 1 1 0 00-.91-.92zM23 29.42a4.07 4.07 0 01-4-3.05 1.42 1.42 0 00-.05-.16 4.14 4.14 0 01-.1-.87A4.08 4.08 0 1123 29.42z"/><path d="M23 22.7a2.65 2.65 0 102.64 2.64A2.65 2.65 0 0023 22.7zm0 3.46a.82.82 0 010-1.63.82.82 0 010 1.63zM38 18h-3.88a.92.92 0 100 1.83H38A.92.92 0 1038 18zM3.59 20.73H1.8a.92.92 0 000 1.83h1.79a.92.92 0 000-1.83z"/></symbol><symbol viewBox="0 0 32 32" id="instagram" xmlns="http://www.w3.org/2000/svg"><path d="M3 10v12a7.07 7.07 0 007 7h12a7.07 7.07 0 007-7V10a7.07 7.07 0 00-7-7H10a7.07 7.07 0 00-7 7zm-3 0A9.81 9.81 0 0110 0h12a9.81 9.81 0 0110 10v12a9.81 9.81 0 01-10 10H10A9.81 9.81 0 010 22zm16 10.71A4.71 4.71 0 1011.29 16 4.66 4.66 0 0016 20.71zm0 2.82A7.53 7.53 0 1123.53 16 7.55 7.55 0 0116 23.53zm9.41-15.06a1.88 1.88 0 01-3.76 0 1.88 1.88 0 113.76 0z"/></symbol><symbol viewBox="0 0 32 30.48" id="linkedin" xmlns="http://www.w3.org/2000/svg"><path d="M32 18.72v11.76h-7V19.59c0-2.83-1-4.59-3.45-4.59a3.1 3.1 0 00-3.26 2.39 3.24 3.24 0 00-.22 1.53v11.56h-7V10h7v2.83a7 7 0 016.09-3.48c4.57.01 7.84 3.06 7.84 9.37zM3.92 0C1.52 0 0 1.52 0 3.48A3.5 3.5 0 003.7 7c2.4 0 3.92-1.56 3.92-3.52A3.37 3.37 0 003.92 0zM.44 30.48h7V10h-7z"/></symbol><symbol viewBox="0 0 111 30" id="logo" xmlns="http://www.w3.org/2000/svg"><path d="M23.32 19.59a3.14 3.14 0 00-.61.05 4.62 4.62 0 01-.65.05 1.1 1.1 0 01-.6-.2 1.07 1.07 0 01-.4-.49 4.3 4.3 0 01-.4-2c0-3.34.16-6.69.26-10 .06-2.18.7-4-.05-6.06a1 1 0 00-.21-.33.87.87 0 00-.32-.22 2.12 2.12 0 00-.9-.17h-.21a15.79 15.79 0 00-5.18 2.14 9.75 9.75 0 00-9.71-1 5.78 5.78 0 00-3.7 5 4.82 4.82 0 00.88 2.77C3.67 12.27 8 12.11 11 13.93a3 3 0 011.72 2.7c-.29 2.05-3.18 2.5-4.77 2.5A5.42 5.42 0 015 18.39a4 4 0 01-1.66-2.17 1.55 1.55 0 00-.61-.77 1.53 1.53 0 00-1-.4 1.71 1.71 0 00-.71.07 1.89 1.89 0 00-.61.36A1.92 1.92 0 000 16.85a3.77 3.77 0 001 2.5 9.52 9.52 0 008.3 2.93c2.23-.29 4.95-1.43 6.21-3.43a5.52 5.52 0 00.73-3.35 5.39 5.39 0 00-1.42-3.1 10 10 0 00-4.05-2.4c-1.47-.54-3-.9-4.5-1.5-2.12-.88-2.87-3-.54-4.22a6.14 6.14 0 013.79-.57 3.84 3.84 0 011.94.86 4.79 4.79 0 00-.46.71c-.88 1.74.72 3 2.78 2.27a2.62 2.62 0 001.38-1.12 2.67 2.67 0 00.35-1.75 2.83 2.83 0 01.89-.9 2.77 2.77 0 011.17-.43c0 .77.08 1.47.06 2.5 0 1.5-.07 3-.14 4.44Q17.35 13 17.35 17a6.88 6.88 0 00.65 3 4.21 4.21 0 001.54 1.8 3.47 3.47 0 001.85.57 3.94 3.94 0 002.02-.37 1.45 1.45 0 00.56-.54 1.54 1.54 0 00.2-.76 1.3 1.3 0 00-.25-.76.88.88 0 00-.26-.25.67.67 0 00-.34-.1zM32.63 13.76a10.06 10.06 0 01-1.45.07 6.86 6.86 0 00-2-.08 1.28 1.28 0 00-.59.49 1.21 1.21 0 00-.2.76c0 .95 1 1.3 1.33 1.38 2.38.2 5.33.55 7.06-1.53 2-2.37.43-6.28-2.3-7.13a7.65 7.65 0 00-4.19-.09 7.79 7.79 0 00-3.61 2.15 7.89 7.89 0 00-2 3.76 8 8 0 00.21 4.26.36.36 0 000 .11 6.77 6.77 0 001.71 2.68 6.56 6.56 0 002.73 1.56 9.13 9.13 0 006.72-.72 1.58 1.58 0 00.69-.56 1.56 1.56 0 00.29-.86 1.47 1.47 0 00-.34-1 1.14 1.14 0 00-.44-.31 1.23 1.23 0 00-.54-.09 4.24 4.24 0 00-1.39.31 5.83 5.83 0 01-4.85-.2c-1.8-1.06-2.07-3.46-1.53-5.34a4.42 4.42 0 011.16-1.91 4.23 4.23 0 011.95-1c1.19-.26 3.85.35 3.48 2.1-.1.82-1.13 1.09-1.9 1.19zM46.56 13.77a12 12 0 01-1.47.06 6.78 6.78 0 00-2-.07 1.28 1.28 0 00-.59.49 1.33 1.33 0 00-.19.75c0 .95 1 1.31 1.33 1.39 2.38.2 5.33.55 7.06-1.54 2-2.37.44-6.28-2.3-7.12a7.62 7.62 0 00-7.79 2 7.91 7.91 0 00-2 3.75 8 8 0 00.21 4.27v.11a6.76 6.76 0 001.72 2.67 6.5 6.5 0 002.73 1.56 9.13 9.13 0 006.72-.71 1.6 1.6 0 00.69-.57 1.73 1.73 0 00.29-.85 1.58 1.58 0 00-.34-1 1.39 1.39 0 00-.45-.31 1.21 1.21 0 00-.53-.09 4.26 4.26 0 00-1.4.32 5.85 5.85 0 01-4.86-.21c-1.79-1.05-2.06-3.46-1.52-5.34a4.3 4.3 0 013.09-3c1.19-.26 3.85.36 3.48 2.11-.08.96-1.11 1.22-1.88 1.33zM82.35 13.77a12 12 0 01-1.47.06 6.85 6.85 0 00-2-.07 1.21 1.21 0 00-.59.48 1.32 1.32 0 00-.2.75c0 .95 1 1.31 1.33 1.39 2.38.2 5.33.55 7.06-1.54 2-2.37.44-6.28-2.3-7.12a7.52 7.52 0 00-4.18-.1 7.69 7.69 0 00-3.62 2.15 8 8 0 00-1.77 8v.11a6.67 6.67 0 001.7 2.67 6.56 6.56 0 002.73 1.56 9.13 9.13 0 006.72-.71 1.69 1.69 0 00.7-.57 1.62 1.62 0 00.28-.85 1.52 1.52 0 00-.33-1 1.25 1.25 0 00-.45-.31 1.21 1.21 0 00-.53-.09 3.92 3.92 0 00-1.39.32 5.85 5.85 0 01-4.86-.21c-1.8-1.05-2.07-3.46-1.53-5.34a4.35 4.35 0 011.17-1.91 4.15 4.15 0 011.94-1c1.19-.26 3.85.36 3.48 2.11-.09.85-1.12 1.11-1.89 1.22zM58.45 7.84a4 4 0 00-2 1.5A4.21 4.21 0 0055.34 8a2.42 2.42 0 00-1.43-.53 1.79 1.79 0 00-1.17.38 1.23 1.23 0 00-.34.41 1.17 1.17 0 00-.12.52 2.3 2.3 0 00.14.87 14.58 14.58 0 011.31 2.86 16.32 16.32 0 01.13 3.35c0 2-.06 4-.22 6-.13 1.68-.25 3.5-.34 5.5a3.86 3.86 0 00.39 1.92 1.71 1.71 0 001.61.67 1.88 1.88 0 001.12-.35c1.1-.79.34-3.55.34-4.7s.08-2.5.24-4.09a5.54 5.54 0 001.29.64A6.37 6.37 0 0064.43 20c2.94-2.59 3.43-8 .56-10.8a6.21 6.21 0 00-3.08-1.64 6.09 6.09 0 00-3.46.28zm4.93 8.5a3.83 3.83 0 01-.93 1.5 3.68 3.68 0 01-2.88 1.08 3.17 3.17 0 01-1.47-.43 1.9 1.9 0 01-.6-.44 1.86 1.86 0 01-.38-.65 30.87 30.87 0 01.17-4 4 4 0 011.1-2.3 3.21 3.21 0 011-.66 3.07 3.07 0 011.21-.19 2.61 2.61 0 011.29.4 3.23 3.23 0 011.15 1.25 4.21 4.21 0 01.54 2.1 8.46 8.46 0 01-.2 2.3zM68.92 4.87a2.86 2.86 0 002.78-.24 1.42 1.42 0 00.53-.53 1.44 1.44 0 00.18-.73 2 2 0 00-.27-.9 2.24 2.24 0 00-.6-.7 2.3 2.3 0 00-2.76-.44 2.62 2.62 0 00-.58 2.12 1.85 1.85 0 00.19.8 1.86 1.86 0 00.53.62zM71.84 8.09a2.56 2.56 0 00-2-.73c-1.68 0-1.27 2-1.2 3.06.08 1.32.12 2.64.14 4v6.23a2.16 2.16 0 00.39 1.35c.64.74 2 .5 2.68 0a1.2 1.2 0 00.45-.47 1.39 1.39 0 00.18-.63c0-3.93-.14-7.94-.4-11.86a1.91 1.91 0 00-.24-.95zM110.44 19.38a.73.73 0 00-.31-.24.72.72 0 00-.38-.07c-1.11 0-1.92 1-3.09.28a2.36 2.36 0 01-.89-1.3 16 16 0 01-.42-4.63c0-1.05 0-2 .11-2.91h.35a19.27 19.27 0 003.55-.37 1.4 1.4 0 00.9-.56 1.48 1.48 0 00.27-1 1.15 1.15 0 00-1.13-1.07 9.27 9.27 0 00-2.17 0c-.63 0-1.13.06-1.49.06a21.65 21.65 0 000-5.19 1.4 1.4 0 00-.55-.38 1.31 1.31 0 00-.65-.07 1.67 1.67 0 00-.91.17 1.76 1.76 0 00-.71.59 46.89 46.89 0 00-.42 5.25 19.76 19.76 0 00-3.17 1l-.14-.13-.19-.25a1.36 1.36 0 00-.61-.4 3.89 3.89 0 00-1-.5 9.4 9.4 0 00-5.81.4 4 4 0 00-2.63 3.5 3.36 3.36 0 00.79 2.32A7.47 7.47 0 0093.58 16c1.2.31 3.24.42 4 1.5 1.27 1.71-1.69 2.2-2.7 2.18a4.73 4.73 0 01-1.88-.41 4.83 4.83 0 01-1.6-1.12 1.71 1.71 0 00-.52-.55 1.64 1.64 0 00-.7-.28 1.62 1.62 0 00-1.15.4 1.36 1.36 0 00-.34.49 1.38 1.38 0 00-.1.6 2.58 2.58 0 00.27 1.09 2.53 2.53 0 00.71.85 8.43 8.43 0 008 1.26c2.81-.92 3.92-3.77 2.65-5.93a4.51 4.51 0 00-1.72-1.64 17.46 17.46 0 00-4.53-1.38 2.92 2.92 0 01-1.75-.92.85.85 0 01-.18-.5 1 1 0 01.14-.38.84.84 0 01.27-.29 3.44 3.44 0 013.71-.48h.07c-2.23 1.81 1.35 2.54 2.24 2.27a2.32 2.32 0 00.75-.49 2.22 2.22 0 00.49-.75c.63-.16 1.53-.36 2.57-.56-.09 1.88-.15 3.38-.15 3.53a17.5 17.5 0 00.57 4.83 4.54 4.54 0 00.57 1.27 4.79 4.79 0 003.71 1.85 5 5 0 002.61-.64 1.81 1.81 0 00.73-.67 1.85 1.85 0 00.29-.94 1.45 1.45 0 00-.17-.81z"/></symbol><symbol viewBox="0 0 12 32" id="long-arrow-down-o" xmlns="http://www.w3.org/2000/svg"><path d="M11.67 26.28L6 31.33l-5.67-5M6 0v31.32" fill="none" stroke="currentColor" stroke-miterlimit="10"/></symbol><symbol viewBox="0 0 32 12" id="long-arrow-left-o" xmlns="http://www.w3.org/2000/svg"><path d="M5.67 11.67L.67 6 5.72.33M.68 6H32" fill="none" stroke="currentColor" stroke-miterlimit="10"/></symbol><symbol viewBox="0 0 32 12" id="long-arrow-right-o" xmlns="http://www.w3.org/2000/svg"><path d="M26.28.33l5 5.67-5 5.67M0 6h31.32" fill="none" stroke="currentColor" stroke-miterlimit="10"/></symbol><symbol viewBox="0 0 12 32" id="long-arrow-up-o" xmlns="http://www.w3.org/2000/svg"><path d="M.33 5.67L6 .67l5.67 5.05M6 .68V32" fill="none" stroke="currentColor" stroke-miterlimit="10"/></symbol><symbol viewBox="0 0 19 19" id="loop" xmlns="http://www.w3.org/2000/svg"><path d="M8.18 16.36a8.18 8.18 0 118.18-8.18 8.19 8.19 0 01-8.18 8.18zM8.18 2a6.18 6.18 0 106.18 6.18A6.18 6.18 0 008.18 2z"/><path d="M17 18a1 1 0 01-.71-.29l-3.43-3.44a1 1 0 011.41-1.41l3.44 3.43a1 1 0 010 1.42A1 1 0 0117 18z"/></symbol><symbol viewBox="0 0 32 32" id="loop-b" xmlns="http://www.w3.org/2000/svg"><path d="M13.77 27.54a13.77 13.77 0 1113.77-13.77 13.79 13.79 0 01-13.77 13.77zm0-21.54a7.77 7.77 0 107.77 7.77A7.78 7.78 0 0013.77 6z"/><path d="M27 30a3 3 0 01-2.12-.88L19.73 24A3 3 0 0124 19.73l5.15 5.15a3 3 0 010 4.24A3 3 0 0127 30z"/></symbol><symbol viewBox="0 0 32 32" id="medium" xmlns="http://www.w3.org/2000/svg"><path d="M0 0v32h32V0zm26.73 7.53L25 9.22a.7.7 0 00-.19.57v12.05a.69.69 0 00.19.56l1.69 1.69v.38h-8.62v-.38l1.69-1.69c.19-.19.19-.19.19-.56v-10l-4.89 12.25h-.57L8.85 11.86v8.28c0 .38 0 .75.37.94l2.26 2.83v.37h-6.4v-.37l2.26-2.83a1.42 1.42 0 00.38-.94v-9.41a1.1 1.1 0 00-.19-.73L5.27 7.53v-.38h6.21l4.9 10.54 4.33-10.54h6z"/></symbol><symbol viewBox="0 0 20 4" id="minus" xmlns="http://www.w3.org/2000/svg"><path d="M0 0h20v4H0z"/></symbol><symbol viewBox="0 0 10 12" id="pause" xmlns="http://www.w3.org/2000/svg"><path d="M2.28.68a1.66 1.66 0 011.66 1.67v7.4a1.66 1.66 0 01-1.66 1.67A1.67 1.67 0 01.61 9.75v-7.4A1.67 1.67 0 012.28.68zM8.2.68a1.67 1.67 0 011.67 1.67v7.4a1.67 1.67 0 01-1.67 1.67 1.66 1.66 0 01-1.66-1.67v-7.4A1.66 1.66 0 018.2.68z"/></symbol><symbol viewBox="0 0 14 16" id="play" xmlns="http://www.w3.org/2000/svg"><path d="M11.93 5l-7-4A3.12 3.12 0 00.27 3.88l.28 8a3.11 3.11 0 004.72 2.56L12 10.41A3.11 3.11 0 0011.93 5z"/></symbol><symbol viewBox="0 0 30 30" id="plus" xmlns="http://www.w3.org/2000/svg"><path d="M18 30h-6V18H0v-6h12V0h6v12h12v6H18v12z"/></symbol><symbol viewBox="0 0 38 30" id="quote" xmlns="http://www.w3.org/2000/svg"><path d="M12.35 14a7.62 7.62 0 013.44 2.91A8.32 8.32 0 0117 21.53a8.36 8.36 0 01-2.38 6.18A8.42 8.42 0 018.56 30a8.55 8.55 0 01-6.18-2.38A8.24 8.24 0 010 21.53 14.71 14.71 0 01.44 18a40.33 40.33 0 011.94-5.29L7.5 0h8.74zm20.83 0a7.67 7.67 0 013.44 2.91 8.4 8.4 0 011.23 4.59 8.36 8.36 0 01-2.38 6.18A8.42 8.42 0 0129.38 30a8.51 8.51 0 01-6.17-2.38 8.25 8.25 0 01-2.39-6.09 14.71 14.71 0 01.44-3.53 40.74 40.74 0 011.95-5.29L28.32 0h8.74z"/></symbol><symbol viewBox="0 0 39 45" id="rain" xmlns="http://www.w3.org/2000/svg"><path d="M22.59 22.6H8.39a7.84 7.84 0 01-7.94-7.72 7.82 7.82 0 017.14-7.69 6.56 6.56 0 016.3-4.84 6.45 6.45 0 013.85 1.23A8.69 8.69 0 0124 1a8.49 8.49 0 016.58 3 7.53 7.53 0 011.81 4.5 7.13 7.13 0 016.55 7 7.14 7.14 0 01-7.24 7H23a.9.9 0 01-.41.1zm-8.7-18.16a4.46 4.46 0 00-4.4 3.89 1 1 0 01-1 .91 5.77 5.77 0 00-5.92 5.64 5.75 5.75 0 005.85 5.63h13.81a1 1 0 01.36-.07h9.11a5 5 0 005.15-4.94 5.06 5.06 0 00-5.15-4.94 1.08 1.08 0 01-.41.07 1 1 0 01-1.05-1 2.72 2.72 0 01.05-.49.68.68 0 000-.14A5.4 5.4 0 0029 5.34 6.4 6.4 0 0024 3a6.54 6.54 0 00-5.3 2.68 1.05 1.05 0 01-1.61.09 4.32 4.32 0 00-3.2-1.33zM15.56 34a3.35 3.35 0 01-3.28-3.41c0-2.56 2.45-4.56 2.55-4.64a1 1 0 011.33 0c.27.23 2.6 2.26 2.6 4.63a3.32 3.32 0 01-3.2 3.42zm-.08-5.77a4 4 0 00-1.11 2.36 1.27 1.27 0 001.19 1.32 1.23 1.23 0 001.11-1.32 4.11 4.11 0 00-1.19-2.41zM6 34a3.35 3.35 0 01-3.27-3.41C2.75 28 5.19 26 5.3 25.9a1 1 0 011.32 0c.27.23 2.6 2.26 2.6 4.63A3.31 3.31 0 016 34zm-.08-5.77a4 4 0 00-1.1 2.36A1.27 1.27 0 006 31.86a1.23 1.23 0 001.11-1.32 4.11 4.11 0 00-1.17-2.36zM25.09 34a3.35 3.35 0 01-3.27-3.41c0-2.56 2.44-4.56 2.55-4.64a1 1 0 011.34 0c.25.22 2.5 2.25 2.58 4.58a3.31 3.31 0 01-3.2 3.47zM25 28.19a3.89 3.89 0 00-1.1 2.35 1.27 1.27 0 001.18 1.32 1.23 1.23 0 001.12-1.31 4.53 4.53 0 00-1.2-2.36zM15.56 44.74a3.35 3.35 0 01-3.28-3.41c0-2.56 2.45-4.56 2.55-4.65a1.06 1.06 0 011.34 0c.27.23 2.59 2.33 2.59 4.62a3.32 3.32 0 01-3.2 3.44zM15.47 39a3.94 3.94 0 00-1.1 2.35 1.27 1.27 0 001.19 1.32 1.24 1.24 0 001.11-1.32 4.26 4.26 0 00-1.2-2.35zM6 44.74a3.35 3.35 0 01-3.27-3.41c0-2.56 2.44-4.56 2.55-4.65a1.06 1.06 0 011.34 0c.26.23 2.58 2.33 2.58 4.62A3.31 3.31 0 016 44.74zM5.94 39a3.89 3.89 0 00-1.1 2.35A1.27 1.27 0 006 42.65a1.24 1.24 0 001.11-1.32A4.24 4.24 0 005.94 39zM25.09 44.74a3.35 3.35 0 01-3.27-3.41c0-2.56 2.44-4.56 2.55-4.65a1 1 0 011.35 0c.28.32 2.49 2.32 2.57 4.61a3.31 3.31 0 01-3.2 3.45zM25 39a3.87 3.87 0 00-1.09 2.34 1.27 1.27 0 001.18 1.32 1.24 1.24 0 001.12-1.31A4.71 4.71 0 0025 39zM34.14 34a3.35 3.35 0 01-3.27-3.41c0-2.56 2.44-4.56 2.54-4.64a1 1 0 011.33 0c.27.23 2.6 2.26 2.6 4.63a3.31 3.31 0 01-3.2 3.42zm-.08-5.77A4 4 0 0033 30.54a1.27 1.27 0 001.18 1.32 1.23 1.23 0 001.11-1.32 4.11 4.11 0 00-1.23-2.36zM34.14 44.74a3.35 3.35 0 01-3.27-3.41c0-2.56 2.44-4.56 2.54-4.65a1.07 1.07 0 011.35 0c.26.23 2.58 2.33 2.58 4.62a3.31 3.31 0 01-3.2 3.44zM34.06 39A3.94 3.94 0 0033 41.33a1.27 1.27 0 001.18 1.32 1.24 1.24 0 001.11-1.32A4.27 4.27 0 0034.06 39z"/></symbol><symbol viewBox="0 0 32 32" id="search-o" xmlns="http://www.w3.org/2000/svg"><path d="M24.8 13.87A10.78 10.78 0 1114 3.1a10.78 10.78 0 0110.8 10.77zm3.95 15l-7.13-7.13" fill="none" stroke="currentColor" stroke-linecap="round" stroke-miterlimit="10" stroke-width="6"/></symbol><symbol viewBox="0 0 39 39" id="square" xmlns="http://www.w3.org/2000/svg"><path d="M21.12 1.77a2 2 0 00-3.25 0l-6.53 9.11a1.68 1.68 0 01-.46.46l-9.11 6.53a2 2 0 000 3.25l9.11 6.53a1.68 1.68 0 01.46.46l6.53 9.11a2 2 0 003.25 0l6.53-9.11a1.68 1.68 0 01.46-.46l9.11-6.53a2 2 0 000-3.25l-9.11-6.53a1.68 1.68 0 01-.46-.46z"/></symbol><symbol viewBox="0 0 23 23" id="star" xmlns="http://www.w3.org/2000/svg"><path d="M1.77 13.21a2 2 0 010-4l5.09-.65a2 2 0 001.73-1.7l.65-5.09a2 2 0 014 0l.65 5.09a2 2 0 001.73 1.73l5.08.65a2 2 0 010 4l-5.08.65a2 2 0 00-1.73 1.73l-.65 5.08a2 2 0 01-4 0l-.65-5.08a2 2 0 00-1.73-1.73z"/></symbol><symbol viewBox="0 0 14 14" id="star-bold" xmlns="http://www.w3.org/2000/svg"><path d="M5 2.55a2 2 0 014 0l.09.65a2 2 0 001.71 1.73l.65.09a2 2 0 010 4l-.65.09a2 2 0 00-1.73 1.69l-.07.65a2 2 0 01-4 0l-.09-.65A2 2 0 003.2 9.07L2.55 9a2 2 0 010-4l.65-.09A2 2 0 004.93 3.2z"/></symbol><symbol viewBox="0 0 32 30" id="star-o" xmlns="http://www.w3.org/2000/svg"><path fill="none" stroke-linejoin="round" stroke="currentColor" stroke-width="2" d="M16 1.11l3.47 10.65h11.34l-9.26 6.48 3.71 10.65L16 22.41l-9.26 6.48 3.71-10.65-9.26-6.48h11.34L16 1.11z"/></symbol><symbol viewBox="0 0 43 43" id="star-thin" xmlns="http://www.w3.org/2000/svg"><path d="M19.82 2.2a1.57 1.57 0 013.11 0l1.84 14.42A1.56 1.56 0 0026.12 18l14.42 1.84a1.57 1.57 0 010 3.11l-14.42 1.82a1.55 1.55 0 00-1.35 1.35l-1.84 14.42a1.57 1.57 0 01-3.11 0L18 26.12a1.56 1.56 0 00-1.36-1.35L2.2 22.93a1.57 1.57 0 010-3.11L16.62 18A1.57 1.57 0 0018 16.62z"/></symbol><symbol viewBox="0 0 32 28" id="telegram" xmlns="http://www.w3.org/2000/svg"><path d="M.52 13.31L7.9 16.1l2.92 9.2a.87.87 0 001.4.41l4.17-3.34a1.09 1.09 0 011.53 0l7.38 5.43a.85.85 0 001.39-.55L32 1.05a.83.83 0 00-1.11-1L.52 11.64a.93.93 0 000 1.67zm9.75 1.26l14.47-8.92c.28-.14.56.28.28.42l-11.83 11a3.34 3.34 0 00-.84 1.54l-.41 3.06c0 .42-.56.42-.7 0l-1.53-5.43a1.33 1.33 0 01.56-1.67z"/></symbol><symbol viewBox="0 0 18 20" id="tiktok" xmlns="http://www.w3.org/2000/svg"><path d="M13.12 7.22a7.86 7.86 0 004.58 1.47V5.4a4.41 4.41 0 01-1-.1v2.59a7.92 7.92 0 01-4.59-1.47v6.71a6.08 6.08 0 01-9.46 5 6.08 6.08 0 0010.43-4.24V7.22zM14.3 3.9a4.54 4.54 0 01-1.18-2.68V.8h-.91a4.55 4.55 0 002.09 3.1zM4.82 15.6A2.78 2.78 0 017 11.14a2.63 2.63 0 01.84.13V7.91a6.19 6.19 0 00-1-.06v2.62a2.68 2.68 0 00-.84-.13 2.78 2.78 0 00-1.18 5.26z" fill="#fff" opacity=".2" style="isolation:isolate"/><path d="M12.15 6.42a7.92 7.92 0 004.59 1.47V5.3a4.56 4.56 0 01-2.44-1.4A4.55 4.55 0 0112.21.8h-2.4v13.13a2.78 2.78 0 01-5 1.67 2.78 2.78 0 011.25-5.26 2.59 2.59 0 01.84.13V7.85a6.08 6.08 0 00-4.21 10.32 6.08 6.08 0 009.46-5z" fill="#fff"/><path d="M16.74 5.3v-.7a4.58 4.58 0 01-2.44-.7 4.61 4.61 0 002.44 1.4zM12.21.8c0-.13 0-.25-.06-.38V0h-3.3v13.13a2.78 2.78 0 01-2.78 2.76 2.74 2.74 0 01-1.25-.29 2.78 2.78 0 005-1.67V.8zm-5.3 7.05v-.74a5.69 5.69 0 00-.83-.06 6.08 6.08 0 00-3.39 11.12A6.08 6.08 0 016.91 7.85z" fill="#fff" opacity=".6" style="isolation:isolate"/></symbol><symbol viewBox="0 0 32 32" id="times-o" xmlns="http://www.w3.org/2000/svg"><path fill="none" stroke="currentColor" stroke-miterlimit="10" stroke-width="4" d="M1.5 1.5l29 29M1.5 30.5l29-29"/></symbol><symbol viewBox="0 0 32 26" id="twitter" xmlns="http://www.w3.org/2000/svg"><path d="M27.8 4.2a7.52 7.52 0 003-3.6 10.77 10.77 0 01-4.2 1.6A7.18 7.18 0 0021.8 0a6.49 6.49 0 00-6.4 6.6 4.4 4.4 0 00.2 1.6 19.64 19.64 0 01-13.4-7 6.64 6.64 0 00-1 3.2 6.65 6.65 0 003 5.6 7.41 7.41 0 01-3-.8 6.85 6.85 0 005.4 6.6H4.8a2.54 2.54 0 01-1.2-.2 6.62 6.62 0 006 4.6 13 13 0 01-8 2.8H0a19 19 0 0010 3c12 0 18.6-10 18.6-18.6v-.8A27.25 27.25 0 0032 3.2a41.87 41.87 0 01-4.2 1z"/></symbol><symbol viewBox="0 0 32 26" id="vimeo" xmlns="http://www.w3.org/2000/svg"><path d="M27.4.13C30.53.13 32 2 32 5.28V6c-.18 2.94-2.21 7-6.62 12-4.23 5.14-8.09 7.9-11 7.9-1.83 0-3.31-1.65-4.59-4.78l-1.51-4.44L7 12.26c-.93-3.12-2-4.59-2.95-4.59A7.24 7.24 0 001.47 9L0 7.11l2.39-2L4.6 3.25C6.62 1.6 8.28.68 9.2.68h.36c2.21 0 3.5 1.65 4 4.78.37 1.84.55 3.31.73 4.41a15.31 15.31 0 00.56 2.39c1.1 3 1.84 4.42 2.76 4.42.73 0 1.65-.92 2.94-2.94s2-3.5 2-4.42v-.55c0-1.29-.73-2-2.21-2a13 13 0 00-2.34.34c1.66-4.59 4.78-7 9-7z"/></symbol><symbol viewBox="0 0 32 18.5" id="vk" xmlns="http://www.w3.org/2000/svg"><path d="M31.83 16.61c-.88-1.91-2.71-3.26-4.15-4.72-.74-.74-1.15-1.42-.57-2.4a35.72 35.72 0 012.28-3.06 22.25 22.25 0 002.13-3.23c.24-.47.71-1.32.39-1.84C31.43.58 28.78 1 28 1s-2.49-.3-3.18.16c-.47.31-.63 1.14-.84 1.63-.3.68-.63 1.35-1 2a17.53 17.53 0 01-2.19 3.31c-.27.31-.77.93-1.21.92-.71 0-.85-1-.89-1.49a30.29 30.29 0 010-3.69c0-1 .37-2.73-.66-3.34S15 .09 13.83.14a5.28 5.28 0 00-2.64.52c-.14.09-.55.39-.55.57s.23.2.52.3a1.69 1.69 0 011.05.81 7.8 7.8 0 01.41 3.81c0 .72 0 2.51-.8 2.87-1.57.72-3.37-3.71-3.9-4.76-.34-.66-.66-1.32-1-2a2.13 2.13 0 00-.69-1.09 2.58 2.58 0 00-1.5-.24A34.72 34.72 0 00.91 1C-.68 1.16.34 2.67.76 3.58q.94 2 2 4c2.32 4.11 5.24 8.73 9.95 10.27a10.11 10.11 0 003.37.43 5.22 5.22 0 002-.11c1-.44.56-1.9.82-2.75.43-1.43 1.38-1.6 2.43-.61 1.67 1.53 2.67 3.63 5.18 3.54 1.32-.05 2.65 0 4-.06.97-.05 1.85-.55 1.32-1.68z"/></symbol><symbol viewBox="0 0 32 22.5" id="youtube" xmlns="http://www.w3.org/2000/svg"><path d="M31.33 3.55A4 4 0 0028.5.72C26 .05 16 .05 16 .05S6 .05 3.5.72A4 4 0 00.67 3.55a41.51 41.51 0 00-.67 7.7A41.51 41.51 0 00.67 19a4 4 0 002.83 2.78c2.49.67 12.5.67 12.5.67s10 0 12.5-.67A4 4 0 0031.33 19a41.51 41.51 0 00.67-7.7 41.51 41.51 0 00-.67-7.75zM12.8 16.05v-9.6l8.31 4.8z"/></symbol></svg>