<svg xmlns="http://www.w3.org/2000/svg" viewBox="0 0 512 512" id="favicon">
	<style>
    path {
      fill:#0A064C;
    }
    @media (prefers-color-scheme: dark) {
      path {
        fill:#FFFFFF;
      }
    }
  </style>
  <path d="M86.2,29.6c-36,6.5-67.5,32.8-79.7,66.5C1.6,109.9.5,116.4.6,133c.1,13.3.5,16.9,2.7,25.2,6.2,23.4,18.8,42,39.7,58.9l4.5,3.7-.4,10.8c-.5,13.7-.5,35.9,0,48.8l.3,9.8-3.4,3C25.5,309,17.7,318.4,10.4,333.7,3.1,348.8.7,359.6.6,377.5c0,8.2.3,16.3.6,18,2.2,10.4,5.6,21.8,7.5,24.8a7.87,7.87,0,0,1,.9,2.2c.2,1.6,6.2,11.5,10.9,18,5,7,12.4,14.8,18,18.9,2.2,1.7,4.2,3.3,4.5,3.6.9,1.3,9.5,6.4,15.5,9.3,15.7,7.7,29.3,10.6,47.5,10.3,7.4-.2,14.6-.6,16-.9s3.9-.9,5.5-1.3c18-3.5,37.9-14.9,52.5-30.1,9.7-10,8.6-9.7,27-6.8,22,3.5,64,4,87,1,1.9-.2,5.8-.7,8.5-1s6.8-1.1,9-1.6c9.5-2.1,10.3-1.8,21.1,8.9,10.3,10.3,17.8,15.9,27.9,20.9a104.79,104.79,0,0,0,99.5-2.8c53.8-31.5,68.4-102.5,31.3-152.4-5.8-7.9-17.2-19.2-22.4-22.2-4.5-2.7-5.7-6-5.2-13.8.4-6.5.4-30.5,0-50.7-.2-8,0-8.8,2.2-10.7a9,9,0,0,1,3.2-2.1c1.7,0,20.8-19.8,24.6-25.5a110.63,110.63,0,0,0,15.9-37.1c2.7-11.8,2.5-35-.4-46.3-6-23.2-18.4-42.2-37.1-57.3-11.5-9.3-29.8-18-42.3-20.3-1.3-.3-4.5-.9-7.3-1.4-5.2-1-27.7-.7-33,.4-27.9,5.7-52.9,21.7-67.5,43.2-4.5,6.7-7,7.7-16.7,6.8-4.3-.4-8.7-.9-9.7-1.1-11.5-2.2-69.5-2.2-82.6,0-14,2.4-18.9,1.2-23-5.6-2.2-3.7-17.5-19.9-22.5-23.7-4.8-3.8-18.5-11.3-25.5-14s-9.7-3.5-19.5-5.6C116.5,28.2,93.5,28.2,86.2,29.6ZM115,70.5c19.6,3.4,38,17.7,46.4,36,4.4,9.5,5.8,11.9,8.4,14.2,2.8,2.4,9.7,4.6,12.7,3.9,1.1-.2,4-.7,6.5-1.1s5.4-.9,6.5-1.1,4-.6,6.5-.9,5.9-.7,7.5-1c19.7-2.7,72.9-2.7,88.5-.1,1.4.2,5,.7,8,1.1,5.5.7,6.7.9,12.5,1.9,1.7.3,4.8.8,7,1.2a18.35,18.35,0,0,1,4.3.9,22.4,22.4,0,0,0,4.5-.7c6.1-1.4,10.6-5.2,13.4-11.7,4.3-10,6.3-13.5,11.6-20.1,18.7-23,48.4-29.7,76.2-17,12.9,5.9,25.9,20.4,31.3,35,4.1,10.9,4.7,26.8,1.6,37.7-4.7,16.7-17.9,32.4-33.5,40.1-15.2,7.5-17.9,12.7-15,28.7.6,3.3,1.3,8.2,1.6,11s.8,6.1,1.1,7.5c1,4.7,1.2,48.5.3,56-3.5,27.7-10.9,47.9-23.5,63.9-7,8.9-8,12.5-4.4,16.1,5.3,5.3,25.4-.8,38.9-11.8,5.6-4.7,14.2-15,16.7-20.2,1-2.2,2.2-4,2.5-4,1,0,4.6,4.4,8.1,10,13.6,21.8,12.2,49.8-3.6,70.7-7.2,9.5-17.8,17.2-30.1,21.8-8.7,3.3-26.7,3.8-36.5.9-15-4.3-30.6-16.8-38.9-31.2-6.9-11.9-12.6-14.2-27.1-11-8.3,1.8-22.1,4.2-31,5.3-2.5.3-7.6,1-11.5,1.4-7.1.9-56.3.8-60-.1-1.1-.3-5.1-.9-9-1.4s-7.2-.8-7.5-.9c-2.2-.5-8.2-1.6-11.5-2-2.2-.4-5.6-1-7.5-1.5-7.1-1.9-11.2-2.1-14.8-.9-5.8,1.9-8,3.9-12.4,11.4-6.3,10.6-17.7,21.4-27.9,26.3-11.1,5.4-15.6,6.4-26.9,6.5-50.7.2-80.9-55.5-52.8-97.5a43.94,43.94,0,0,1,4.7-6.2c.5-.3,2.7,2.3,5,5.9,10.6,16.4,27.6,27.9,44.2,30,6.6.8,9.3-.3,10.6-4.2,1.4-4.2,1.3-4.4-5.3-12.7C102.2,345,94.1,327.2,91,312c-.5-2.5-1.2-5.6-1.5-7s-.8-4.9-1.1-7.9-.8-6.4-1-7.5c-.6-2.7-.6-38.8,0-44.1.3-2.2.7-6.5,1-9.5.7-7.7,1.5-14.1,2.1-17,3.4-16.5.4-23.7-12-29.5a64.42,64.42,0,0,1-36.3-47.8C35.7,99.8,73.1,63.2,115,70.5Z"/>
  <path d="M246.2,195.5a55.75,55.75,0,0,0-8.1,2.9c-5,2.6-13.9,11.5-17.6,17.7-4.1,6.6-8.9,19.2-10,25.9-.4,2.5-.9,5.4-1.1,6.5-.8,4.2-.5,19.3.6,26,1.6,10,2.8,13.9,7.7,23.6,14.3,28.6,42.1,35.6,62.3,15.6,8.9-8.8,16.1-23.6,18.8-38.7,1.5-7.9.8-28.3-1.2-36.5-3.7-15.3-13.7-31.1-24.3-38.4C265.8,195,254.9,193.1,246.2,195.5Z"/>
  <path d="M350.5,224.9c-19.4,9.1-23.4,42.3-7,58.7,8.9,8.9,17.5,9.7,27.7,2.8s15.4-24.6,11.9-39.7C378.9,229,363.6,218.8,350.5,224.9Z"/>
  <path d="M146.4,227.1c-4.5,1.3-11.7,9.5-14.5,16.5-3.2,8.3-3.3,24.3-.1,32.5,7,17.6,21.4,23,33.2,12.3,14.1-12.8,13.7-45.4-.7-57.3C158.6,226.4,153,225.2,146.4,227.1Z"/>
</svg>
