<svg xmlns="http://www.w3.org/2000/svg" viewBox="0 0 150 40">
  <path d="M32.32,26.11a5.69,5.69,0,0,0-.82.08,5.1,5.1,0,0,1-.87.07,1.48,1.48,0,0,1-.81-.27,1.46,1.46,0,0,1-.54-.66,5.79,5.79,0,0,1-.53-2.69c0-4.49.2-9,.34-13.48C29.18,6.23,30,3.83,29,1a1.31,1.31,0,0,0-.28-.45,1.42,1.42,0,0,0-.43-.29A2.93,2.93,0,0,0,27.11.05a1.4,1.4,0,0,0-.29,0V0a21.36,21.36,0,0,0-6.95,2.87,13.09,13.09,0,0,0-13-1.34c-2.63,1.1-5,3.7-5,6.72A6.6,6.6,0,0,0,3,12c2.89,4.32,8.65,4.11,12.71,6.55,1.31.78,2.52,2.11,2.3,3.63-.38,2.74-4.26,3.35-6.4,3.35a7.21,7.21,0,0,1-3.95-1,5.27,5.27,0,0,1-2.23-2.9,2.19,2.19,0,0,0-.82-1.05A2.15,2.15,0,0,0,3.33,20a2.29,2.29,0,0,0-.94.1,2.35,2.35,0,0,0-.83.47A2.68,2.68,0,0,0,1,22.44,5.07,5.07,0,0,0,2.31,25.8c2.63,3.13,7.24,4.44,11.18,3.93,3-.39,6.65-1.92,8.34-4.61a7.32,7.32,0,0,0,1-4.49,7.24,7.24,0,0,0-1.9-4.16,13.42,13.42,0,0,0-5.44-3.3c-2-.72-4.07-1.21-6.05-2C6.57,10,5.56,7.2,8.7,5.56a8.31,8.31,0,0,1,5.09-.77,5.19,5.19,0,0,1,2.6,1.15,6,6,0,0,0-.61,1c-1.19,2.33,1,4,3.72,3a3.48,3.48,0,0,0,1.86-1.5,3.59,3.59,0,0,0,.47-2.36A3.8,3.8,0,0,1,24.6,4.31c0,1,.1,2,.08,3.36,0,2-.09,4-.19,6q-.18,3.67-.18,9a9.13,9.13,0,0,0,.82,4.12,5.64,5.64,0,0,0,2.07,2.41,4.68,4.68,0,0,0,2.48.77,5.24,5.24,0,0,0,2.75-.55,1.91,1.91,0,0,0,.76-.73,2,2,0,0,0,.27-1,1.69,1.69,0,0,0-.34-1,1.1,1.1,0,0,0-.34-.34,1.07,1.07,0,0,0-.46-.14Z" fill="#221f5e"/>
  <path d="M44.82,18.3a15.84,15.84,0,0,1-1.94.09c-.66,0-2.05-.36-2.63-.1a1.66,1.66,0,0,0-.81.65,1.82,1.82,0,0,0-.27,1c0,1.27,1.41,1.75,1.8,1.86,3.19.27,7.15.74,9.48-2.06,2.63-3.19.58-8.44-3.09-9.57a10.13,10.13,0,0,0-5.62-.12A10.27,10.27,0,0,0,36.88,13,10.67,10.67,0,0,0,34.21,18a10.83,10.83,0,0,0,.29,5.73.34.34,0,0,0,0,.14,9,9,0,0,0,2.3,3.6,8.7,8.7,0,0,0,3.67,2.09,12.26,12.26,0,0,0,9-1,2.16,2.16,0,0,0,1.31-1.91,2,2,0,0,0-.45-1.37,1.56,1.56,0,0,0-.6-.42,1.48,1.48,0,0,0-.72-.12,5.66,5.66,0,0,0-1.86.42,7.87,7.87,0,0,1-6.53-.27c-2.41-1.42-2.77-4.65-2-7.17a5.8,5.8,0,0,1,1.57-2.57,5.7,5.7,0,0,1,2.61-1.41c1.6-.35,5.17.48,4.67,2.83C47.24,17.8,45.85,18.16,44.82,18.3Z" fill="#221f5e"/>
  <path d="M63.53,18.3a16.14,16.14,0,0,1-2,.09c-.66,0-2-.36-2.63-.1a1.62,1.62,0,0,0-.78.66,1.7,1.7,0,0,0-.26,1c0,1.27,1.4,1.75,1.79,1.86,3.19.27,7.15.74,9.48-2.06,2.63-3.19.58-8.44-3.1-9.57a10.1,10.1,0,0,0-5.61-.12A10.28,10.28,0,0,0,55.6,13a10.59,10.59,0,0,0-2.67,5,10.89,10.89,0,0,0,.28,5.72l0,.15a9,9,0,0,0,2.3,3.59,8.83,8.83,0,0,0,3.67,2.1,12.29,12.29,0,0,0,9-1,2.16,2.16,0,0,0,.93-.76,2.26,2.26,0,0,0,.39-1.15,2,2,0,0,0-.46-1.38,1.81,1.81,0,0,0-.6-.42,1.6,1.6,0,0,0-.72-.11,5.52,5.52,0,0,0-1.87.42,7.81,7.81,0,0,1-6.52-.28c-2.42-1.41-2.77-4.64-2-7.17a5.79,5.79,0,0,1,1.55-2.55,5.64,5.64,0,0,1,2.6-1.42c1.6-.35,5.18.47,4.68,2.82C66,17.8,64.57,18.16,63.53,18.3Z" fill="#221f5e"/>
  <path d="M111.59,18.3a14.36,14.36,0,0,1-2,.08c-.66,0-2-.35-2.63-.1a1.72,1.72,0,0,0-.8.66,1.75,1.75,0,0,0-.27,1c0,1.28,1.4,1.75,1.8,1.86,3.19.27,7.15.74,9.47-2.06,2.64-3.18.59-8.43-3.08-9.57a10.14,10.14,0,0,0-5.62-.12,10.27,10.27,0,0,0-4.86,2.88A10.69,10.69,0,0,0,101,18a10.84,10.84,0,0,0,.3,5.73l0,.15a9,9,0,0,0,2.3,3.59,8.61,8.61,0,0,0,3.66,2.09,12.23,12.23,0,0,0,9-1,2.06,2.06,0,0,0,.92-.76,2.11,2.11,0,0,0,.39-1.14,2.08,2.08,0,0,0-.45-1.38,1.67,1.67,0,0,0-.6-.42,1.76,1.76,0,0,0-.72-.12,5.67,5.67,0,0,0-1.86.43,7.87,7.87,0,0,1-6.53-.28c-2.41-1.42-2.77-4.65-2-7.17A5.77,5.77,0,0,1,107,15.18a5.63,5.63,0,0,1,2.61-1.42c1.6-.34,5.17.48,4.67,2.83C114,17.8,112.62,18.16,111.59,18.3Z" fill="#221f5e"/>
  <path d="M79.49,10.35a5.34,5.34,0,0,0-2.63,2,5.48,5.48,0,0,0-1.54-1.84A3.29,3.29,0,0,0,73.4,9.8a2.43,2.43,0,0,0-1.57.51,1.64,1.64,0,0,0-.45.56,1.51,1.51,0,0,0-.17.7,3.12,3.12,0,0,0,.19,1.17c.53,1.34,1.47,2.31,1.76,3.83a21.85,21.85,0,0,1,.17,4.5c0,2.69-.08,5.37-.29,8.06-.18,2.26-.34,4.7-.46,7.38a5.08,5.08,0,0,0,.53,2.58,2.27,2.27,0,0,0,2.16.91,2.6,2.6,0,0,0,1.5-.48c1.47-1.06.46-4.76.46-6.31s.11-3.36.32-5.49a8.46,8.46,0,0,0,1.73.86c2.75,1,6.09,0,8.25-1.9,4-3.47,4.6-10.67.75-14.49A8.44,8.44,0,0,0,84.15,10a8.33,8.33,0,0,0-4.66.38Zm6.63,11.41a5.24,5.24,0,0,1-1.25,2A5,5,0,0,1,81,25.21a4.16,4.16,0,0,1-2-.57,2.39,2.39,0,0,1-.81-.59,2.42,2.42,0,0,1-.51-.88,40.79,40.79,0,0,1,.23-5.3,5.41,5.41,0,0,1,1.48-3.1,4.36,4.36,0,0,1,1.4-.88,4.29,4.29,0,0,1,1.63-.26,3.45,3.45,0,0,1,1.73.54,4.3,4.3,0,0,1,1.55,1.67,5.71,5.71,0,0,1,.66,2.81,11.55,11.55,0,0,1-.27,3.1Z" fill="#221f5e"/>
  <path d="M93.55,6.35A3.87,3.87,0,0,0,97.3,6a2,2,0,0,0,.7-.72,2,2,0,0,0,.25-1,3,3,0,0,0-.36-1.2,3,3,0,0,0-.82-1C96,1.27,94.4.81,93.37,1.6c-.76.59-.84,2-.78,2.85a2.35,2.35,0,0,0,.26,1.07A2.45,2.45,0,0,0,93.55,6.35Z" fill="#221f5e"/>
  <path d="M97.47,10.68a3.4,3.4,0,0,0-2.68-1c-2.25,0-1.7,2.68-1.61,4.11.1,1.77.16,3.55.19,5.33,0,2.78,0,5.58,0,8.37a2.83,2.83,0,0,0,.53,1.91c.85,1,2.63.67,3.59,0a1.67,1.67,0,0,0,.61-.63,1.85,1.85,0,0,0,.24-.86c0-5.27-.2-10.65-.54-15.92a2.48,2.48,0,0,0-.33-1.33Z" fill="#221f5e"/>
  <path d="M149.32,25.84a1,1,0,0,0-.42-.33,1.13,1.13,0,0,0-.51-.09c-1.49,0-2.58,1.34-4.15.37a3.14,3.14,0,0,1-1.19-1.74,21.26,21.26,0,0,1-.56-6.22c0-1.41,0-2.68.14-3.91l.48-.06a24.57,24.57,0,0,0,4.76-.49,1.9,1.9,0,0,0,1.56-2.14,1.55,1.55,0,0,0-1.51-1.45,13.49,13.49,0,0,0-2.91.06c-.85.06-1.52.08-2,.08.27-1.54.27-6.57,0-7a1.84,1.84,0,0,0-.74-.5,1.76,1.76,0,0,0-.88-.11,2.39,2.39,0,0,0-1.21.23,2.5,2.5,0,0,0-1,.79,67.67,67.67,0,0,0-.56,7.06,25.56,25.56,0,0,0-4.25,1.34l-.19-.18-.26-.27a1.86,1.86,0,0,0-.81-.55,5.77,5.77,0,0,0-1.42-.67,12.78,12.78,0,0,0-7.8.54,5.32,5.32,0,0,0-3.53,4.71,4.46,4.46,0,0,0,1.07,3.11,10,10,0,0,0,5.21,2.8c1.61.42,4.36.57,5.45,2,1.7,2.29-2.27,3-3.63,2.93a6.33,6.33,0,0,1-2.54-.51,6.57,6.57,0,0,1-2.15-1.5,2.26,2.26,0,0,0-1.63-1.12,2.29,2.29,0,0,0-1.56.54,1.89,1.89,0,0,0-.45.66,2,2,0,0,0-.14.8,3.5,3.5,0,0,0,.37,1.46,3.3,3.3,0,0,0,1,1.15c2.94,2.52,7.23,2.85,10.8,1.68,3.77-1.23,5.26-5.06,3.56-7.95a6,6,0,0,0-2.31-2.21c-1.87-1.06-4-1.35-6.08-1.85A3.85,3.85,0,0,1,125,16.11a1,1,0,0,1-.24-.67,1.48,1.48,0,0,1,.18-.51,1.35,1.35,0,0,1,.36-.39,4.74,4.74,0,0,1,2.41-1.06,4.61,4.61,0,0,1,2.58.42l.1.07c-3,2.43,1.8,3.4,3,3a2.69,2.69,0,0,0,1-.66,2.85,2.85,0,0,0,.66-1c.86-.21,2.06-.48,3.45-.75-.11,2.53-.19,4.55-.19,4.74a23.25,23.25,0,0,0,.76,6.49,6.57,6.57,0,0,0,.76,1.71A6.5,6.5,0,0,0,142,29.35a6.37,6.37,0,0,0,2.77.66,6.54,6.54,0,0,0,3.51-.86,2.54,2.54,0,0,0,1-.89,2.59,2.59,0,0,0,.39-1.27,1.94,1.94,0,0,0-.34-1.15Z" fill="#221f5e"/>
</svg>
