<svg width="26" height="26" viewBox="0 0 26 26" fill="none" xmlns="http://www.w3.org/2000/svg">
<path d="M11.3204 1.598C12.1084 0.379101 13.8916 0.379101 14.6796 1.598L17.712 6.28859C17.9819 6.70603 18.3975 7.00801 18.8779 7.13567L24.276 8.5702C25.6787 8.94297 26.2298 10.6388 25.314 11.7649L21.7901 16.0984C21.4765 16.4841 21.3177 16.9727 21.3447 17.469L21.6485 23.0462C21.7275 24.4955 20.2849 25.5436 18.9309 25.0207L13.7206 23.0083C13.2569 22.8292 12.7431 22.8292 12.2794 23.0083L7.06909 25.0207C5.71513 25.5436 4.27254 24.4955 4.35148 23.0462L4.65526 17.469C4.6823 16.9727 4.52354 16.4841 4.20993 16.0984L0.685976 11.7649C-0.229757 10.6388 0.321266 8.94297 1.72401 8.5702L7.1221 7.13567C7.6025 7.00801 8.01814 6.70602 8.28801 6.28859L11.3204 1.598Z" fill="#FFE24B"/>
</svg>
