<svg width="28" height="26" viewBox="0 0 28 26" fill="none" xmlns="http://www.w3.org/2000/svg">
<path opacity="0.5" d="M12.3204 1.598C13.1084 0.379101 14.8916 0.379101 15.6796 1.598L18.712 6.28859C18.9819 6.70603 19.3975 7.00801 19.8779 7.13567L25.276 8.5702C26.6787 8.94297 27.2298 10.6388 26.314 11.7649L22.7901 16.0984C22.4765 16.4841 22.3177 16.9727 22.3447 17.469L22.6485 23.0462C22.7275 24.4955 21.2849 25.5436 19.9309 25.0207L14.7206 23.0083C14.2569 22.8292 13.7431 22.8292 13.2794 23.0083L8.06909 25.0207C6.71513 25.5436 5.27254 24.4955 5.35148 23.0462L5.65526 17.469C5.6823 16.9727 5.52354 16.4841 5.20993 16.0984L1.68598 11.7649C0.770243 10.6388 1.32127 8.94297 2.72401 8.5702L8.1221 7.13567C8.6025 7.00801 9.01814 6.70602 9.28801 6.28859L12.3204 1.598Z" stroke="white"/>
</svg>
